<?xml version="1.0" encoding="utf-8"?>
<!-- Generator: Adobe Illustrator 25.0.1, SVG Export Plug-In . SVG Version: 6.00 Build 0)  -->
<svg version="1.0" id="Layer_1" xmlns="http://www.w3.org/2000/svg" xmlns:xlink="http://www.w3.org/1999/xlink" x="0px" y="0px"
	 viewBox="0 0 217 127" style="enable-background:new 0 0 217 127;" xml:space="preserve">
<style type="text/css">
	.st0{fill:#FFC320;}
	.st1{fill:none;}
</style>
<path class="st0" d="M32.2,55.7c-1,0-1.8,0.8-1.8,1.8c0,1,0.8,1.8,1.8,1.8H40c1,0,1.8-0.8,1.8-1.8c0-1-0.8-1.8-1.8-1.8H32.2z
	 M38.3,71.3c1,0,1.8-0.8,1.8-1.8c0-1-0.8-1.8-1.8-1.8H34c-1,0-1.8,0.8-1.8,1.8c0,1,0.8,1.8,1.8,1.8H38.3z M43.2,65.3
	c1-0.1,1.7-0.9,1.6-1.9c-0.1-0.9-0.8-1.6-1.6-1.6H29c-0.5,0-0.9,0.2-1.3,0.5c-0.2,0.2-0.3,0.4-0.4,0.6c-0.2,0.4-0.2,0.9,0,1.4
	c0.1,0.2,0.2,0.4,0.4,0.6c0.3,0.3,0.8,0.5,1.3,0.5C29,65.3,43.2,65.3,43.2,65.3z M52,62.5c0.4,0.6,0.4,1.4,0,2.1l-7,12.2
	c-0.2,0.3-0.4,0.6-0.8,0.8c-0.3,0.2-0.6,0.3-1,0.3H29.1c-0.4,0-0.7-0.1-1-0.3c-0.3-0.2-0.6-0.4-0.8-0.8l-7-12.2
	c-0.4-0.6-0.4-1.4,0-2.1l7-12.2c0.2-0.3,0.4-0.6,0.8-0.8c0.3-0.2,0.6-0.3,1-0.3h14.1c0.7,0,1.4,0.4,1.8,1L52,62.5z M72.1,61.8
	c-2.9,0-6.1,1.4-6.1,5.7s3.2,5.7,6.1,5.7c3,0.1,5.5-2.2,5.7-5.2c0-0.2,0-0.4,0-0.5c0-0.4,0-0.8-0.1-1.1c-0.1-0.4-0.2-0.7-0.3-1.1
	c-0.1-0.3-0.3-0.7-0.5-1c-0.2-0.3-0.4-0.6-0.7-0.9c-0.3-0.3-0.6-0.5-0.9-0.7c-0.3-0.2-0.6-0.4-1-0.5c-0.4-0.1-0.7-0.2-1.1-0.3
	C72.9,61.8,72.5,61.7,72.1,61.8L72.1,61.8z M72.5,77.2c-1.2,0.1-2.5-0.2-3.6-0.7c-1.1-0.5-2.1-1.2-2.9-2.2v0.3
	c-0.1,1.2-1.1,2.1-2.3,2c-1.1-0.1-1.9-0.9-2-2V51.4c0-0.3,0.1-0.5,0.2-0.8c0.1-0.3,0.3-0.5,0.5-0.7c0.2-0.2,0.4-0.4,0.7-0.5
	c0.3-0.1,0.5-0.2,0.8-0.2c0.3,0,0.5,0.1,0.8,0.2c0.3,0.1,0.5,0.3,0.7,0.5c0.2,0.2,0.4,0.4,0.5,0.7c0.1,0.3,0.2,0.5,0.2,0.8v8.8
	c1.6-1.9,4-2.9,6.5-2.8c4.9,0,9.2,4,9.2,9.9S77.4,77.2,72.5,77.2L72.5,77.2z M98.8,75.1c-1.6,1.7-2.6,2.2-6,2.2
	c-4.5,0-7.5-2.9-7.5-7.7v-9.6c0-0.3,0.1-0.5,0.2-0.8c0.1-0.3,0.3-0.5,0.5-0.7c0.7-0.8,2-0.9,2.8-0.1c0,0,0.1,0.1,0.1,0.1
	c0.2,0.2,0.4,0.4,0.5,0.7c0.1,0.3,0.2,0.5,0.2,0.8v8.8c0,3.1,1.4,4.7,4.2,4.7c2.3,0,4.1-0.4,5.1-3.1c0,0,0-1.8,0-3.4v-7
	c0-0.3,0.1-0.5,0.2-0.8c0.1-0.3,0.3-0.5,0.5-0.7c0.2-0.2,0.4-0.4,0.7-0.5c0.3-0.1,0.5-0.2,0.8-0.2c0.3,0,0.5,0.1,0.8,0.2
	c0.2,0.1,0.5,0.3,0.7,0.5c0.4,0.4,0.6,0.9,0.7,1.5v15.1c-0.1,1.2-1.2,2-2.3,1.9C99.7,76.9,98.9,76.1,98.8,75.1L98.8,75.1z
	 M137.9,74.9c0,0.3-0.1,0.5-0.2,0.8c-0.1,0.3-0.3,0.5-0.5,0.7c-0.2,0.2-0.4,0.4-0.7,0.5c-0.5,0.3-1.1,0.3-1.6,0
	c-0.3-0.1-0.5-0.3-0.7-0.5c-0.2-0.2-0.4-0.4-0.5-0.7c-0.1-0.3-0.2-0.5-0.2-0.8v-9c0.2-2.2-1.5-4.1-3.7-4.3c-0.2,0-0.4,0-0.6,0
	c-3.1,0-4.3,2-4.3,6.2v7.2c0,0.3-0.1,0.5-0.2,0.8c-0.1,0.3-0.3,0.5-0.5,0.7c-0.2,0.2-0.4,0.4-0.7,0.5c-0.5,0.3-1.1,0.3-1.6,0
	c-0.3-0.1-0.5-0.3-0.7-0.5c-0.2-0.2-0.4-0.4-0.5-0.7c-0.1-0.3-0.2-0.5-0.2-0.8v-9c0-2.8-1.5-4.5-3.9-4.5c-3,0-4.6,2.2-4.6,6.3v7.2
	c0,0.3-0.1,0.5-0.2,0.8c-0.1,0.3-0.3,0.5-0.5,0.7c-0.2,0.2-0.4,0.4-0.7,0.5c-0.5,0.3-1.1,0.3-1.6,0c-0.3-0.1-0.5-0.3-0.7-0.5
	c-0.2-0.2-0.4-0.4-0.5-0.7c-0.1-0.3-0.2-0.5-0.2-0.8V59.9c0-0.3,0.1-0.5,0.2-0.8c0.1-0.3,0.3-0.5,0.5-0.7c0.2-0.2,0.4-0.3,0.7-0.5
	c0.3-0.1,0.5-0.2,0.8-0.2c0.3,0,0.5,0.1,0.8,0.2c0.5,0.2,0.9,0.6,1.1,1.1c0.1,0.2,0.2,0.5,0.2,0.8c1.4-1.7,3.5-2.7,5.7-2.5
	c2.4-0.1,4.6,1.2,5.7,3.3c1.6-2.2,4.1-3.4,6.8-3.2c4.2,0,7.5,3.4,7.4,7.6L137.9,74.9L137.9,74.9z M153.2,61.7
	c-2.9,0-6.1,1.4-6.1,5.7s3.2,5.7,6.1,5.7c3,0.1,5.5-2.2,5.7-5.2c0-0.2,0-0.4,0-0.5c0-0.4,0-0.8-0.1-1.1c-0.1-0.4-0.2-0.7-0.3-1.1
	c-0.1-0.4-0.3-0.7-0.5-1c-0.2-0.3-0.4-0.6-0.7-0.9c-0.3-0.3-0.6-0.5-0.9-0.7c-0.3-0.2-0.7-0.4-1-0.5c-0.4-0.1-0.7-0.2-1.1-0.3
	C154,61.7,153.6,61.7,153.2,61.7L153.2,61.7z M153.6,77.2c-1.2,0.1-2.4-0.2-3.6-0.7c-1.1-0.5-2.1-1.2-2.9-2.2v0.3
	c-0.1,1.2-1.1,2.1-2.3,2c-1.1-0.1-1.9-0.9-2-2V51.4c0-0.3,0.1-0.5,0.2-0.8c0.1-0.3,0.3-0.5,0.5-0.7c0.2-0.2,0.4-0.4,0.7-0.5
	c0.3-0.1,0.5-0.2,0.8-0.2c0.3,0,0.5,0.1,0.8,0.2c0.3,0.1,0.5,0.3,0.7,0.5c0.2,0.2,0.4,0.4,0.5,0.7c0.1,0.3,0.2,0.5,0.2,0.8v8.8
	c0.8-0.9,1.8-1.7,2.9-2.2c1.1-0.5,2.3-0.7,3.6-0.7c4.9,0,9.2,4,9.2,9.9S158.6,77.2,153.6,77.2L153.6,77.2z M170.6,71.3
	c0,1.3,0.9,1.9,2.4,1.9c0.2,0,0.5,0,0.7,0c1-0.1,1.8,0.6,2,1.5c0.2,0.9-0.3,1.8-1.2,2.1c-0.7,0.3-1.5,0.4-2.2,0.4
	c-3.1,0-5.9-2.3-5.9-5.3V51.4c0-0.3,0.1-0.5,0.2-0.8c0.1-0.3,0.3-0.5,0.5-0.7c0.2-0.2,0.4-0.4,0.7-0.5c0.3-0.1,0.5-0.2,0.8-0.2
	c0.6,0,1.1,0.3,1.5,0.7c0.2,0.2,0.4,0.4,0.5,0.7c0.1,0.3,0.2,0.5,0.2,0.8L170.6,71.3L170.6,71.3z M193,65.3
	c-0.6-3.1-2.5-4.2-5.3-4.2s-5.1,1.2-5.7,4.2H193z M182,68.9c0.4,3.5,2.8,4.4,5.5,4.4c1.8,0,3.4,0.2,4.7-1.7c0.7-0.8,1.8-1.1,2.8-0.6
	c1,0.6,1.2,1.9,0.6,2.9c-0.1,0.1-0.1,0.2-0.2,0.3c-1.8,2.4-4.6,3.1-7.8,3.1c-5.1,0-9.8-3.5-9.8-9.5s3.3-10.7,9.9-10.7
	c6,0,9.3,4.1,9.3,10.1v0.2c0,0.6-0.4,1.4-1,1.4L182,68.9z"/>
<rect x="13" y="42" class="st1" width="191" height="43"/>
</svg>
